<?xml version="1.0" encoding="UTF-8"?>
<svg width="56" height="56" viewBox="0 0 100 100" fill="none" xmlns="http://www.w3.org/2000/svg">
  <g stroke="#007acc" stroke-width="1">
    <!-- Geometric nonagon design for Tyumi logo -->
    <path d="M34.61 7.71 L65.39 7.71 L88.97 27.5 L94.32 57.81 L78.93 84.47 L50 95 L21.07 84.47 L5.68 57.81 L11.03 27.5 Z"/>
    
    <!-- Lines connecting all vertices (K9 complete graph - 36 lines) -->
    <!-- From vertex 0 (34.61, 7.71) -->
    <line x1="34.61" y1="7.71" x2="65.39" y2="7.71"/>
    <line x1="34.61" y1="7.71" x2="88.97" y2="27.5"/>
    <line x1="34.61" y1="7.71" x2="94.32" y2="57.81"/>
    <line x1="34.61" y1="7.71" x2="78.93" y2="84.47"/>
    <line x1="34.61" y1="7.71" x2="50" y2="95"/>
    <line x1="34.61" y1="7.71" x2="21.07" y2="84.47"/>
    <line x1="34.61" y1="7.71" x2="5.68" y2="57.81"/>
    <line x1="34.61" y1="7.71" x2="11.03" y2="27.5"/>
    
    <!-- From vertex 1 (65.39, 7.71) -->
    <line x1="65.39" y1="7.71" x2="88.97" y2="27.5"/>
    <line x1="65.39" y1="7.71" x2="94.32" y2="57.81"/>
    <line x1="65.39" y1="7.71" x2="78.93" y2="84.47"/>
    <line x1="65.39" y1="7.71" x2="50" y2="95"/>
    <line x1="65.39" y1="7.71" x2="21.07" y2="84.47"/>
    <line x1="65.39" y1="7.71" x2="5.68" y2="57.81"/>
    <line x1="65.39" y1="7.71" x2="11.03" y2="27.5"/>
    
    <!-- From vertex 2 (88.97, 27.5) -->
    <line x1="88.97" y1="27.5" x2="94.32" y2="57.81"/>
    <line x1="88.97" y1="27.5" x2="78.93" y2="84.47"/>
    <line x1="88.97" y1="27.5" x2="50" y2="95"/>
    <line x1="88.97" y1="27.5" x2="21.07" y2="84.47"/>
    <line x1="88.97" y1="27.5" x2="5.68" y2="57.81"/>
    <line x1="88.97" y1="27.5" x2="11.03" y2="27.5"/>
    
    <!-- From vertex 3 (94.32, 57.81) -->
    <line x1="94.32" y1="57.81" x2="78.93" y2="84.47"/>
    <line x1="94.32" y1="57.81" x2="50" y2="95"/>
    <line x1="94.32" y1="57.81" x2="21.07" y2="84.47"/>
    <line x1="94.32" y1="57.81" x2="5.68" y2="57.81"/>
    <line x1="94.32" y1="57.81" x2="11.03" y2="27.5"/>
    
    <!-- From vertex 4 (78.93, 84.47) -->
    <line x1="78.93" y1="84.47" x2="50" y2="95"/>
    <line x1="78.93" y1="84.47" x2="21.07" y2="84.47"/>
    <line x1="78.93" y1="84.47" x2="5.68" y2="57.81"/>
    <line x1="78.93" y1="84.47" x2="11.03" y2="27.5"/>
    
    <!-- From vertex 5 (50, 95) -->
    <line x1="50" y1="95" x2="21.07" y2="84.47"/>
    <line x1="50" y1="95" x2="5.68" y2="57.81"/>
    <line x1="50" y1="95" x2="11.03" y2="27.5"/>
    
    <!-- From vertex 6 (21.07, 84.47) -->
    <line x1="21.07" y1="84.47" x2="5.68" y2="57.81"/>
    <line x1="21.07" y1="84.47" x2="11.03" y2="27.5"/>
    
    <!-- From vertex 7 (5.68, 57.81) -->
    <line x1="5.68" y1="57.81" x2="11.03" y2="27.5"/>
  </g>
</svg>